<svg width="48" height="48" xmlns="http://www.w3.org/2000/svg">
 <g>
  <title>Logo dev finances</title>
  <rect fill="none" id="canvas_background" height="50" width="50" y="-1" x="-1"/>
  <g display="none" overflow="visible" y="0" x="0" height="100%" width="100%" id="canvasGrid">
   <rect fill="url(#gridpattern)" stroke-width="0" y="0" x="0" height="100%" width="100%"/>
  </g>
 </g>
 <g>
  <title>Layer 1</title>
  <rect rx="10" id="svg_20" height="48" width="48" y="0" x="0" stroke-width="null" fill="#0a89ff"/>
  <g transform="rotate(13.393976211547852 23.999998092651364,24.000001907348636) " stroke="null" id="svg_17">
   <g stroke="null" id="svg_18">
    <path stroke="null" id="svg_15" fill="#ffffff" d="m13.17403,36.73685c-0.91407,0 -1.68096,-0.3184 -2.30015,-0.95519c-0.61936,-0.63679 -0.92904,-1.42505 -0.92904,-2.36511c0,-0.94006 0.30968,-1.72848 0.92904,-2.36528c0.6192,-0.63679 1.38608,-0.95519 2.30015,-0.95519c0.8848,0 1.63672,0.3184 2.25608,0.95519c0.6192,0.63679 0.92888,1.42522 0.92888,2.36528c0,0.94006 -0.30968,1.72832 -0.92888,2.36511c-0.61936,0.63679 -1.37128,0.95519 -2.25608,0.95519z"/>
    <path stroke="null" id="svg_16" fill="#ffffff" d="m38.05516,29.79709c0,1.28395 -0.37168,2.49093 -1.11505,3.62077c-0.71541,1.12985 -1.78605,2.0801 -3.21521,2.85044c-1.39956,0.77034 -3.06555,1.23264 -4.99961,1.38674l0,3.11999l-2.90274,0l0,-3.11999c-2.79748,-0.23123 -5.05882,-0.98874 -6.78566,-2.27269c-1.72684,-1.28395 -2.59026,-2.97872 -2.59026,-5.08448l5.44695,0c0.09045,1.0014 0.46214,1.83604 1.11669,2.50375c0.65455,0.64189 1.59198,1.05288 2.81228,1.23264l0,-8.47418c-1.99327,-0.43664 -3.6165,-0.87312 -4.8664,-1.30977c-1.2499,-0.46214 -2.32054,-1.18116 -3.21357,-2.15707c-0.86342,-0.97575 -1.29595,-2.31101 -1.29595,-4.00594c0,-2.13135 0.86342,-3.89039 2.59026,-5.27708c1.72684,-1.41236 3.98818,-2.23409 6.78566,-2.4652l0,-3.12004l2.90274,0l0,3.12004c2.61822,0.20543 4.71674,0.92445 6.29392,2.15705c1.60843,1.20693 2.51625,2.87609 2.72347,5.00748l-5.44695,0c-0.08881,-0.79606 -0.44569,-1.50224 -1.07064,-2.11854c-0.62495,-0.64199 -1.45877,-1.07854 -2.49981,-1.30965l0,8.32008c1.99327,0.41082 3.61485,0.84747 4.8664,1.3096c1.2499,0.43664 2.30574,1.14284 3.16916,2.11859c0.86342,0.95009 1.29431,2.27269 1.29431,3.96746zm-16.42965,-11.94085c0,1.05288 0.35852,1.87453 1.07229,2.46527c0.74336,0.59058 1.78605,1.06554 3.12476,1.42505l0,-7.78076c-1.27951,0.12841 -2.30574,0.52644 -3.08035,1.1941c-0.74336,0.66766 -1.11669,1.56644 -1.11669,2.69634zm7.09978,16.17803c1.30911,-0.17976 2.33535,-0.62923 3.08035,-1.34825c0.74336,-0.74468 1.11505,-1.63063 1.11505,-2.65785c0,-1.02706 -0.37168,-1.82321 -1.11505,-2.38814c-0.71541,-0.59058 -1.74164,-1.06571 -3.08035,-1.42522l0,7.81946z"/>
   </g>
  </g>
 </g>
</svg>